<?xml version="1.0" encoding="iso-8859-1"?>
<!-- Generator: Adobe Illustrator 19.0.0, SVG Export Plug-In . SVG Version: 6.00 Build 0)  -->
<svg version="1.1" id="Capa_1" xmlns="http://www.w3.org/2000/svg" xmlns:xlink="http://www.w3.org/1999/xlink" x="0px" y="0px"
	 viewBox="0 0 497.371 497.371" style="enable-background:new 0 0 497.371 497.371;" xml:space="preserve">
<g>
	
		<rect x="259.249" y="182.264" transform="matrix(-0.5203 -0.854 0.854 -0.5203 398.3499 617.5492)" style="fill:#030303;" width="226.746" height="29.258"/>
	<polygon style="fill:#030303;" points="247.223,428.617 219.429,421.303 289.646,130.194 74.606,260.389 58.514,235.52 
		334.994,68.754 	"/>
</g>
<circle style="fill:#08A650;" cx="313.051" cy="99.474" r="78.994"/>
<g style="opacity:0.1;">
	<path style="fill:#030303;" d="M386.194,70.217c-10.24-4.389-21.943-7.314-33.646-7.314c-43.886,0-78.994,35.109-78.994,78.994
		c0,10.24,1.463,20.48,5.851,30.72c-26.331-13.166-45.349-39.497-45.349-71.68c0-43.886,35.109-78.994,78.994-78.994
		C345.234,20.48,374.491,40.96,386.194,70.217z"/>
</g>
<circle style="fill:#FFCA19;" cx="430.08" cy="294.034" r="52.663"/>
<circle style="fill:#F1594C;" cx="234.057" cy="424.229" r="52.663"/>
<circle style="fill:#849DA9;" cx="67.291" cy="247.223" r="52.663"/>
<g>
	<path style="fill:#030303;" d="M313.051,193.097c-51.2,0-93.623-42.423-93.623-93.623s42.423-93.623,93.623-93.623
		s93.623,42.423,93.623,93.623C406.674,152.137,364.251,193.097,313.051,193.097z M313.051,35.109
		c-35.109,0-64.366,29.257-64.366,64.366s29.257,64.366,64.366,64.366s64.366-29.257,64.366-64.366S348.16,35.109,313.051,35.109z"
		/>
	<path style="fill:#030303;" d="M430.08,359.863c-36.571,0-67.291-29.257-67.291-67.291s29.257-67.291,67.291-67.291
		s67.291,29.257,67.291,67.291S468.114,359.863,430.08,359.863z M430.08,256c-20.48,0-38.034,16.091-38.034,38.034
		c0,21.943,16.091,38.034,38.034,38.034c21.943,0,38.034-16.091,38.034-38.034C468.114,272.091,452.023,256,430.08,256z"/>
	<path style="fill:#030303;" d="M234.057,491.52c-36.571,0-67.291-29.257-67.291-67.291s29.257-67.291,67.291-67.291
		s67.291,29.257,67.291,67.291S270.629,491.52,234.057,491.52z M234.057,387.657c-20.48,0-38.034,16.091-38.034,38.034
		c0,21.943,16.091,38.034,38.034,38.034s38.034-16.091,38.034-38.034C272.091,403.749,254.537,387.657,234.057,387.657z"/>
	<path style="fill:#030303;" d="M67.291,314.514C30.72,314.514,0,285.257,0,247.223s29.257-67.291,67.291-67.291
		s67.291,29.257,67.291,67.291S103.863,314.514,67.291,314.514z M67.291,210.651c-20.48,0-38.034,16.091-38.034,38.034
		s16.091,36.571,38.034,36.571s38.034-16.091,38.034-38.034S87.771,210.651,67.291,210.651z"/>
</g>
<g>
</g>
<g>
</g>
<g>
</g>
<g>
</g>
<g>
</g>
<g>
</g>
<g>
</g>
<g>
</g>
<g>
</g>
<g>
</g>
<g>
</g>
<g>
</g>
<g>
</g>
<g>
</g>
<g>
</g>
</svg>
